<?xml  version="1.0" encoding="UTF-8"?>
<!DOCTYPE svg PUBLIC "-//W3C//DTD SVG 1.0//EN" "http://www.w3.org/TR/2001/REC-SVG-20010904/DTD/svg10.dtd" >
<svg xmlns="http://www.w3.org/2000/svg" >
<metadata>
<version>1.0</version>
<id><![CDATA[Proxima N W01 Bold It]]></id>
<vendor>Monotype Imaging Inc.</vendor>
<credits>
<name>Fonts.com WebFonts</name>
<URL>http://webfonts.fonts.com</URL>
<role>Home of the Web fonts</role>
</credits>
<license>
<URL>http://webfonts.fonts.com/Legal</URL>
</license>
<copyright><![CDATA[Copyright (c) Mark Simonson, 2005. All rights reserved.]]></copyright>
<trademark><![CDATA[Proxima Nova is a trademark of Mark Simonson.]]></trademark>
<licensee>
<name></name>
</licensee>
</metadata>
<defs >
<font horiz-adv-x="524" id="1500822b-1abc-4461-81dd-b48cfcf99020">
<font-face font-family="" panose-1="2 0 5 6 3 0 0 2 0 4" ascent="741" descent="-259" units-per-em="1000" alphabetic="0">
</font-face>
<missing-glyph horiz-adv-x="0" />

<glyph unicode="&#xA;" />
<glyph unicode="&#xD;" horiz-adv-x="0" />
<glyph unicode=" " horiz-adv-x="256" />
<glyph unicode="!" horiz-adv-x="256" d="M65 217L144 667H297L177 217H65ZM82 -12Q51 -12 30 10T8 63Q8 81 15 97T34 125T63 144T97 151Q128 151 149 129T170 76Q170 58 163 42T144 14T116 -5T82 -12Z"  />
<glyph unicode="&quot;" horiz-adv-x="406" d="M113 375Q115 431 117 478Q118 498 118 517T120 553T121 580T122 596Q122 631 145 654T201 677Q226 677 244 659T262 614Q262 606 260 598T255 584Q254 581 250 571T239 545T226 512T210 474Q192 429 169 375H113ZM295 375Q297 431 299 478Q300 498 300 517T302 553T303 580T304 596Q305 631 327 654T383 677Q408 677 426 659T444 614Q444 606 442 598T437 584Q436 581 432 571T421 545T408 512T392 474Q374 429 351 375H295Z"  />
<glyph unicode="#" horiz-adv-x="618" d="M190 0L285 169H190L96 0H2L97 169H0L44 250H141L233 416H136L178 496H278L372 667H466L372 496H466L560 667H655L559 496H657L615 416H515L423 250H524L481 169H378L285 0H190ZM421 416H327L236 250H329L421 416Z"  />
<glyph unicode="$" horiz-adv-x="614" d="M211 -2Q145 12 92 41T8 112L96 216Q120 184 157 160T239 123L274 280Q242 292 210 307T153 344T113 393T97 460Q97 501 114 540T165 609T247 658T358 677H362L382 768H477L454 666Q505 654 548 629T623 569L535 469Q513 494 485 511T426 539L394 397Q427 385 459 370T516 333T557 284T573 216Q573 170 555 129T504 56T421 7T310 -12H303L284 -100H189L211 -2ZM421 188Q421 207 404 221T360 247L331 112Q378 115 399 139T421 188ZM247 486Q247 468 263 455T307 430L334 554Q315 554 299 548T272 533T254 511T247 486Z"  />
<glyph unicode="%" horiz-adv-x="757" d="M76 0L649 667H725L151 0H76ZM530 -12Q498 -12 469 -3T417 25T382 69T369 127Q369 170 384 206T424 267T483 307T554 321Q586 321 615 312T667 284T702 240T715 182Q715 138 700 103T660 42T601 2T530 -12ZM532 66Q570 66 597 95T624 174Q624 203 604 222T552 242Q514 242 488 213T461 135Q461 105 480 86T532 66ZM241 345Q209 345 180 354T130 382T95 425T82 483Q82 526 97 562T137 623T196 663T267 677Q299 677 328 668T378 640T413 597T426 539Q426 495 411 460T371 399T312 359T241 345ZM245 423Q282 423 309 452T336 530Q336 559 316 578T263 598Q226 598 199 569T172 491Q172 462 192 443T245 423Z"  />
<glyph unicode="&amp;" horiz-adv-x="646" d="M415 0L387 37Q349 14 308 1T221 -12Q176 -12 137 -2T68 29T22 84T5 164Q5 212 21 247T63 309T124 353T196 385Q179 441 179 490Q179 530 195 564T238 623T303 662T382 677Q416 677 447 669T503 643T541 601T556 541Q556 497 538 467T491 415T425 378T349 349Q357 332 366 315T386 281Q398 259 409 239T432 200Q461 231 484 263T522 322L613 265Q586 227 554 188T486 114Q521 60 566 0H415ZM242 88Q264 88 286 95T332 117Q315 143 300 166T276 207Q263 231 251 254T228 301Q191 281 168 253T144 179Q144 133 173 111T242 88ZM307 491Q307 461 318 425Q344 434 367 444T406 466T432 493T442 529Q442 558 426 571T387 585Q373 585 359 579T333 561T314 532T307 491Z"  />
<glyph unicode="&apos;" horiz-adv-x="225" d="M113 375Q115 431 117 478Q118 498 118 517T120 553T121 580T122 596Q122 631 145 654T201 677Q226 677 244 659T262 614Q262 606 260 598T255 584Q254 581 250 571T239 545T226 512T210 474Q192 429 169 375H113Z"  />
<glyph unicode="(" horiz-adv-x="297" d="M103 -199Q63 -139 43 -59T23 107Q23 185 42 264T96 417T182 560T296 685L363 617Q266 501 212 363T157 72Q157 16 168 -41T195 -146L103 -199Z"  />
<glyph unicode=")" horiz-adv-x="297" d="M193 685Q232 625 252 545T273 379Q273 301 254 222T200 69T113 -74T-1 -199L-67 -131Q30 -15 84 123T139 413Q139 469 128 526T101 632L193 685Z"  />
<glyph unicode="*" horiz-adv-x="351" d="M169 366L200 480L94 432L76 489L183 527L98 587L141 637L220 569L239 677H303L272 564L378 612L396 554L290 515L375 456L330 406L252 474L234 366H169Z"  />
<glyph unicode="+" horiz-adv-x="504" d="M307 298L262 95H176L221 298H41L58 377H238L281 572H368L325 377H505L487 298H307Z"  />
<glyph unicode="&#x2c;" horiz-adv-x="256" d="M174 69Q174 40 163 11T132 -44T85 -93T27 -131L-18 -84Q9 -72 38 -49T80 0H69Q45 0 27 16T8 65Q8 83 15 98T35 125T63 144T96 151Q127 151 150 131T174 69Z"  />
<glyph unicode="-" horiz-adv-x="300" d="M17 188L41 296H281L257 188H17Z"  />
<glyph unicode="." horiz-adv-x="256" d="M82 -12Q51 -12 30 10T8 63Q8 81 15 97T34 125T63 144T97 151Q128 151 149 129T170 76Q170 58 163 42T144 14T116 -5T82 -12Z"  />
<glyph unicode="/" horiz-adv-x="329" d="M-60 -20L333 687H429L35 -20H-60Z"  />
<glyph unicode="0" horiz-adv-x="620" d="M284 -12Q230 -12 186 6T110 58T61 142T43 257Q43 338 67 413T135 547T240 641T375 677Q429 677 473 660T549 608T597 523T614 409Q614 328 590 252T523 118T419 24T284 -12ZM297 114Q339 114 371 143T425 216T459 314T471 416Q471 475 445 513T361 551Q319 551 287 522T233 449T199 352T187 250Q187 191 212 153T297 114Z"  />
<glyph unicode="1" horiz-adv-x="411" d="M149 0L255 484L120 371L57 456L314 667H438L291 0H149Z"  />
<glyph unicode="2" horiz-adv-x="600" d="M-7 0L22 132Q128 192 208 239T342 327T423 403T450 474Q450 510 417 531T330 552Q275 552 234 535T164 492L104 594Q149 632 211 654T340 677Q391 677 438 665T521 628T578 567T599 483Q599 433 574 387T503 297T393 210T250 125H522L495 0H-7Z"  />
<glyph unicode="3" horiz-adv-x="587" d="M279 -12Q233 -12 189 -3T106 24T37 68T-13 127L82 213Q98 188 120 170T169 139T223 120T277 114Q337 114 366 140T396 206Q396 235 370 255T274 276Q263 276 251 276T228 276T207 275T193 274L222 402Q226 402 237 402T263 401T291 401T315 401Q372 401 408 418T445 478Q445 511 411 531T314 551Q271 551 229 538T152 497L101 594Q143 632 201 654T328 677Q388 677 436 666T519 632T573 577T592 503Q592 469 576 441T535 391T477 356T412 338Q438 332 460 320T500 291T526 249T536 192Q536 148 516 111T461 46T380 4T279 -12Z"  />
<glyph unicode="4" horiz-adv-x="597" d="M290 0L320 138H1L29 262L375 667H579L490 263H575L548 138H462L432 0H290ZM409 541L167 263H347L409 541Z"  />
<glyph unicode="5" horiz-adv-x="608" d="M296 -12Q198 -12 129 21T18 116L119 206Q146 162 191 138T298 114Q327 114 350 122T390 146T415 180T424 222Q424 266 390 289T298 312Q259 312 232 303T176 272L84 309L163 667H621L594 542H277L243 385Q269 406 300 417T376 428Q416 428 452 416T515 379T557 320T573 239Q573 188 553 142T497 62T409 8T296 -12Z"  />
<glyph unicode="6" horiz-adv-x="608" d="M301 -12Q177 -12 108 55T39 246Q39 327 62 404T131 542T244 640T397 677Q471 677 527 653T621 586L533 486Q509 518 471 534T389 551Q352 551 322 537T269 500T228 447T202 387Q198 380 197 373T193 361Q206 375 225 387T266 410T314 425T366 431Q411 431 449 419T516 382T561 324T577 247Q577 194 555 147T496 64T408 9T301 -12ZM301 114Q328 114 351 123T392 147T419 184T429 229Q429 249 419 265T392 293T351 311T300 317Q265 317 235 303T179 266Q178 261 178 251T178 232Q178 177 212 146T301 114Z"  />
<glyph unicode="7" horiz-adv-x="545" d="M62 0L418 542H90L117 667H618L596 568L225 0H62Z"  />
<glyph unicode="8" horiz-adv-x="606" d="M285 -12Q232 -12 184 -2T97 30T37 86T14 167Q14 232 62 283T199 358Q159 376 129 410T99 492Q99 541 122 576T183 633T267 666T361 677Q409 677 455 667T538 635T598 582T621 506Q621 473 609 445T573 393T519 354T448 331Q495 306 527 268T559 180Q559 134 536 99T475 39T388 1T285 -12ZM337 399Q395 403 431 424T468 481Q468 513 435 533T352 554Q330 554 310 549T275 534T250 510T241 477Q241 463 250 451T273 428T304 410T337 399ZM291 110Q315 110 337 116T377 133T404 159T415 193Q415 209 406 223T382 249T348 268T310 281Q280 279 254 273T208 254T177 226T165 189Q165 150 200 130T291 110Z"  />
<glyph unicode="9" horiz-adv-x="608" d="M345 678Q469 678 538 611T607 420Q607 339 584 262T515 124T402 26T248 -11Q174 -11 119 13T26 79L113 180Q136 148 174 132T258 115Q294 115 324 129T377 166T418 218T445 278Q447 285 449 292T453 305Q426 277 380 256T280 234Q235 234 197 247T130 284T85 342T68 419Q68 472 90 519T150 601T238 657T345 678ZM345 552Q318 552 295 543T254 518T227 482T217 437Q217 417 227 401T254 373T295 355T345 349Q381 349 412 362T467 399Q468 404 468 415T468 433Q468 488 434 520T345 552Z"  />
<glyph unicode=":" horiz-adv-x="256" d="M82 -12Q51 -12 30 10T8 63Q8 81 15 97T34 125T63 144T97 151Q128 151 149 129T170 76Q170 58 163 42T144 14T116 -5T82 -12ZM156 328Q125 328 104 350T83 403Q83 421 90 437T109 464T137 483T171 490Q203 490 224 469T245 416Q245 398 238 382T219 354T190 335T156 328Z"  />
<glyph unicode=";" horiz-adv-x="256" d="M174 69Q174 40 163 11T132 -44T85 -93T27 -131L-18 -84Q9 -72 38 -49T80 0H69Q45 0 27 16T8 65Q8 83 15 98T35 125T63 144T96 151Q127 151 150 131T174 69ZM156 328Q125 328 104 350T83 403Q83 421 90 437T109 464T137 483T171 490Q203 490 224 469T245 416Q245 398 238 382T219 354T190 335T156 328Z"  />
<glyph unicode="&lt;" horiz-adv-x="504" d="M38 289L59 380L549 580L527 482L139 330L460 180L440 90L38 289Z"  />
<glyph unicode="=" horiz-adv-x="504" d="M61 388L78 468H524L507 388H61ZM19 201L37 279H483L466 201H19Z"  />
<glyph unicode="&gt;" horiz-adv-x="504" d="M-6 90L16 188L405 338L83 490L103 580L505 380L485 289L-6 90Z"  />
<glyph unicode="?" horiz-adv-x="456" d="M169 204Q152 235 152 274Q152 311 166 336T202 379T249 411T295 437T331 464T346 499Q346 523 326 537T265 552Q233 552 201 540T143 504L83 602Q131 642 182 659T286 677Q329 677 367 667T434 638T480 592T497 529Q497 485 481 455T439 404T386 368T332 339T291 307T274 264Q274 259 276 251T285 236L169 204ZM179 -12Q149 -12 128 10T106 63Q106 81 113 97T132 125T161 144T195 151Q226 151 247 129T268 76Q268 58 261 42T242 14T214 -5T179 -12Z"  />
<glyph unicode="@" horiz-adv-x="783" d="M372 -70Q304 -70 246 -46T146 20T79 120T55 244Q55 324 88 395T175 521T302 606T452 638Q524 638 582 614T681 547T744 450T767 332Q767 269 749 223T701 146T637 100T569 85Q524 85 501 107T472 159L471 165Q445 128 407 107T327 85Q291 85 262 97T213 132T183 186T172 253Q172 303 191 347T241 425T313 478T398 498Q443 498 475 479T523 431L534 484H647L596 240Q595 235 594 228T593 216Q593 193 603 182T630 171Q645 171 661 180T692 208T715 258T724 332Q724 391 705 440T649 524T562 579T448 599Q377 599 313 570T200 493T123 380T94 246Q94 187 115 137T174 49T263 -10T376 -32Q427 -32 472 -18T559 23L580 -7Q533 -37 481 -53T372 -70ZM371 175Q411 175 438 196T482 240L507 357Q499 374 479 391T426 408Q396 408 371 396T327 363T299 317T288 263Q288 224 310 200T371 175Z"  />
<glyph unicode="A" horiz-adv-x="684" d="M480 0L463 113H177L110 0H-59L346 667H524L634 0H480ZM411 525L244 238H451L411 525Z"  />
<glyph unicode="B" horiz-adv-x="663" d="M12 0L159 667H483Q526 667 560 654T617 619T652 568T664 507Q664 473 652 443T618 390T570 351T512 333Q535 327 553 314T583 282T601 242T608 198Q608 163 595 128T555 65T483 18T376 0H12ZM422 400Q447 400 464 407T492 427T507 453T512 483Q512 509 493 527T444 545H275L243 400H422ZM365 123Q413 123 439 149T466 210Q466 240 447 259T393 278H215L181 123H365Z"  />
<glyph unicode="C" horiz-adv-x="687" d="M372 -12Q303 -12 243 9T139 69T70 163T44 287Q44 375 75 447T160 571T284 650T432 678Q493 678 541 663T626 621T688 561T728 489L591 443Q571 496 527 524T425 552Q378 552 336 533T261 479T211 398T192 296Q192 257 205 224T242 166T302 128T380 114Q423 114 465 135T537 191L646 117Q617 80 583 56T513 16T441 -5T372 -12Z"  />
<glyph unicode="D" horiz-adv-x="718" d="M12 0L159 667H417Q472 667 524 647T617 589T681 498T706 380Q706 314 683 247T608 125T474 35T274 0H12ZM300 125Q360 125 408 144T489 198T540 276T558 371Q558 407 546 438T511 493T458 529T390 542H274L182 125H295H300Z"  />
<glyph unicode="E" horiz-adv-x="583" d="M12 0L159 667H631L603 542H274L243 401H565L537 276H215L182 125H511L484 0H12Z"  />
<glyph unicode="F" horiz-adv-x="571" d="M12 0L159 667H631L603 542H274L243 401H565L537 276H215L154 0H12Z"  />
<glyph unicode="G" horiz-adv-x="720" d="M372 -12Q304 -12 244 9T140 68T70 162T44 287Q44 371 74 443T157 567T284 648T445 678Q499 678 543 664T621 627T680 575T720 513L589 457Q572 499 527 525T425 552Q378 552 336 533T262 479T211 398T192 296Q192 258 205 225T242 167T301 128T380 114Q422 114 454 128T513 165L531 245H354L382 370H701L643 110Q594 52 525 20T372 -12Z"  />
<glyph unicode="H" horiz-adv-x="731" d="M469 0L531 280H216L154 0H12L159 667H301L244 405H558L616 667H759L612 0H469Z"  />
<glyph unicode="I" horiz-adv-x="274" d="M12 0L159 667H301L154 0H12Z"  />
<glyph unicode="J" horiz-adv-x="486" d="M165 -12Q109 -12 56 6T-29 63L48 169Q64 145 92 130T155 114Q204 114 233 143T273 221L371 667H513L415 219Q389 100 329 44T165 -12Z"  />
<glyph unicode="K" horiz-adv-x="636" d="M416 0L269 273L200 205L154 0H12L159 667H301L238 381L529 667H712L378 354L583 0H416Z"  />
<glyph unicode="L" horiz-adv-x="523" d="M12 0L159 667H301L182 125H463L436 0H12Z"  />
<glyph unicode="M" horiz-adv-x="855" d="M592 0L698 481L404 0H342L260 481L154 0H12L159 667H353L422 250L677 667H882L735 0H592Z"  />
<glyph unicode="N" horiz-adv-x="729" d="M472 0L254 450L154 0H12L159 667H305L517 233L614 667H756L609 0H472Z"  />
<glyph unicode="O" horiz-adv-x="765" d="M372 -12Q303 -12 243 9T139 69T69 163T44 287Q44 369 73 440T155 564T278 647T432 678Q501 678 560 657T664 597T734 503T759 380Q759 298 730 227T648 102T525 19T372 -12ZM380 114Q428 114 470 134T543 188T593 269T611 370Q611 412 597 445T557 503T498 539T423 552Q375 552 333 532T259 478T210 397T192 296Q192 254 206 220T246 163T305 127T380 114Z"  />
<glyph unicode="P" horiz-adv-x="624" d="M12 0L159 667H452Q498 667 535 653T597 613T636 554T650 482Q650 445 637 402T591 323T505 262T374 237H207L154 0H12ZM383 362Q437 362 469 392T501 467Q501 500 479 521T418 542H274L234 362H383Z"  />
<glyph unicode="Q" horiz-adv-x="765" d="M372 -12Q303 -12 243 9T139 69T69 163T44 287Q44 369 73 440T155 564T278 647T432 678Q501 678 560 657T664 597T734 503T759 380Q759 283 719 203T609 68L644 14L530 -41L498 8Q438 -12 372 -12ZM380 114Q403 114 428 119L371 211L484 266L537 182Q571 217 591 265T611 370Q611 412 597 445T557 503T498 539T423 552Q375 552 333 532T259 478T210 397T192 296Q192 254 206 220T246 163T305 127T380 114Z"  />
<glyph unicode="R" horiz-adv-x="643" d="M395 0L316 237H206L154 0H12L159 667H444Q484 667 521 654T587 617T633 557T650 479Q650 434 636 395T596 325T535 275T460 247L552 0H395ZM383 362Q439 362 470 391T501 465Q501 499 476 520T417 542H274L234 362H381H383Z"  />
<glyph unicode="S" horiz-adv-x="600" d="M301 -12Q252 -12 207 -3T122 22T52 62T-1 112L87 216Q104 193 128 174T182 141T244 120T312 112Q339 112 358 119T389 137T406 161T412 188Q412 211 388 227T328 257T250 286T172 324T112 379T88 460Q88 501 105 540T156 609T238 658T349 677Q429 677 499 649T614 569L526 469Q507 491 483 507T433 533T380 549T327 554Q289 554 264 534T238 486Q238 464 262 450T322 421T401 392T479 353T540 297T564 216Q564 170 546 129T495 56T412 7T301 -12Z"  />
<glyph unicode="T" horiz-adv-x="582" d="M166 0L285 542H90L118 667H650L623 542H428L309 0H166Z"  />
<glyph unicode="U" horiz-adv-x="733" d="M356 -12Q284 -12 230 5T139 52T85 126T66 221Q66 231 67 244T71 266L159 667H303L216 270Q214 265 213 257T212 237Q212 212 221 190T249 150T294 123T356 113Q432 113 472 156T528 270L616 667H761L672 267Q658 206 635 155T575 67T484 9T356 -12Z"  />
<glyph unicode="V" horiz-adv-x="684" d="M199 0L88 667H243L315 154L612 667H781L377 0H199Z"  />
<glyph unicode="W" horiz-adv-x="918" d="M522 0L506 458L289 0H138L94 667H250L260 185L493 667H604L624 185L847 667H1010L673 0H522Z"  />
<glyph unicode="X" horiz-adv-x="668" d="M456 0L335 237L121 0H-57L264 351L105 667H266L375 446L570 667H749L446 334L617 0H456Z"  />
<glyph unicode="Y" horiz-adv-x="645" d="M198 0L258 273L88 667H242L349 399L572 667H742L400 273L340 0H198Z"  />
<glyph unicode="Z" horiz-adv-x="592" d="M-12 0L13 115L414 542H108L135 667H636L612 553L209 125H524L496 0H-12Z"  />
<glyph unicode="[" horiz-adv-x="280" d="M-50 -190L143 678H359L340 593H216L61 -105H185L166 -190H-50Z"  />
<glyph unicode="\" horiz-adv-x="329" d="M98 687H190L270 -20H178L98 687Z"  />
<glyph unicode="]" horiz-adv-x="280" d="M-79 -190L-60 -105H64L219 593H95L113 678H329L136 -190H-79Z"  />
<glyph unicode="^" horiz-adv-x="441" d="M352 333L299 580L137 333H38L268 667H361L441 333H352Z"  />
<glyph unicode="_" horiz-adv-x="564" d="M-85 -125L-65 -40H504L484 -125H-85Z"  />
<glyph unicode="`" horiz-adv-x="251" d="M231 556L101 700H218L320 556H231Z"  />
<glyph unicode="a" horiz-adv-x="586" d="M281 495Q329 495 370 475T435 419L448 483H576L469 0H341L355 60Q324 24 289 6T210 -12Q127 -12 77 39T26 188Q26 243 42 297T91 396T171 467T281 495ZM301 382Q270 382 244 369T199 332T170 278T159 214Q159 162 189 132T266 101Q300 101 328 117T377 158L414 326Q398 350 369 366T301 382Z"  />
<glyph unicode="b" horiz-adv-x="586" d="M304 -12Q254 -12 214 8T150 64L136 0H9L156 667H283L229 423Q290 495 375 495Q456 495 507 443T558 295Q558 241 542 186T493 87T413 16T304 -12ZM283 101Q314 101 340 114T385 151T414 205T425 269Q425 321 395 351T318 382Q284 382 256 366T207 324L170 156Q186 132 215 117T283 101Z"  />
<glyph unicode="c" horiz-adv-x="499" d="M265 -12Q211 -12 167 4T93 48T45 117T28 208Q28 268 49 320T109 411T198 472T309 495Q384 495 432 469T505 400L410 327Q395 353 369 367T309 382Q275 382 247 369T199 332T168 279T157 214Q157 187 166 166T192 130T231 109T278 101Q309 101 335 114T379 149L448 64Q421 35 375 12T265 -12Z"  />
<glyph unicode="d" horiz-adv-x="586" d="M281 495Q329 495 370 475T435 419L489 667H617L469 0H341L355 60Q324 24 289 6T210 -12Q127 -12 77 39T26 188Q26 243 42 297T91 396T171 467T281 495ZM301 382Q270 382 244 369T199 332T170 278T159 214Q159 162 189 132T266 101Q300 101 328 117T377 158L414 326Q398 350 369 366T301 382Z"  />
<glyph unicode="e" horiz-adv-x="553" d="M278 -12Q221 -12 175 3T96 46T46 114T28 205Q28 264 49 316T107 409T195 472T307 495Q353 495 392 480T461 438T507 370T524 279Q524 258 521 236T514 201H155V189Q155 174 163 157T187 124T229 99T287 89Q319 89 352 98T409 125L449 38Q414 14 369 1T278 -12ZM410 287V297Q410 315 404 332T384 363T349 385T299 394Q273 394 251 385T212 360T184 326T168 287H410Z"  />
<glyph unicode="f" horiz-adv-x="327" d="M38 0L120 373H40L65 483H144L150 510Q158 544 172 574T210 628T264 664T336 677Q374 677 406 666T463 630L400 556Q389 567 377 572T346 577Q317 577 301 560T277 508L271 483H370L345 373H247L165 0H38Z"  />
<glyph unicode="g" horiz-adv-x="585" d="M212 -196Q140 -196 81 -178T-21 -112L53 -27Q76 -59 119 -75T210 -92Q232 -92 253 -87T292 -67T324 -28T347 33L357 77Q329 43 292 24T209 4Q173 4 140 15T82 49T42 110T27 200Q27 255 44 308T93 402T171 469T277 495Q320 495 363 475T433 419L447 483H575L475 33Q460 -36 432 -80T368 -150T292 -186T212 -196ZM269 117Q301 117 329 133T378 172L412 322Q395 351 364 366T294 382Q264 382 240 370T197 336T169 287T159 225Q159 175 189 146T269 117Z"  />
<glyph unicode="h" horiz-adv-x="580" d="M336 0L399 290Q401 296 402 305T404 320Q404 354 380 368T321 382Q289 382 259 364T208 325L136 0H9L156 667H283L229 420Q258 448 297 471T390 495Q460 495 500 462T541 372Q541 364 540 352T536 332L463 0H336Z"  />
<glyph unicode="i" horiz-adv-x="253" d="M198 535Q169 535 150 554T130 600Q130 621 138 637T158 664T186 680T215 686Q245 686 264 667T284 621Q284 600 276 584T256 557T228 541T198 535ZM9 0L116 483H243L136 0H9Z"  />
<glyph unicode="j" horiz-adv-x="253" d="M-54 -196Q-144 -196 -188 -155L-135 -64Q-124 -78 -108 -85T-72 -92Q-44 -92 -24 -73T5 -13L116 483H243L132 -13Q114 -96 71 -146T-54 -196ZM198 535Q169 535 150 554T130 600Q130 621 138 637T158 664T186 680T215 686Q245 686 264 667T284 621Q284 600 276 584T256 557T228 541T198 535Z"  />
<glyph unicode="k" horiz-adv-x="535" d="M327 0L238 189L163 124L136 0H9L156 667H283L196 276L420 483H582L342 264L481 0H327Z"  />
<glyph unicode="l" horiz-adv-x="253" d="M9 0L156 667H283L136 0H9Z"  />
<glyph unicode="m" horiz-adv-x="852" d="M608 0L673 292Q674 297 675 306T677 324Q677 352 657 367T608 382Q579 382 553 365T507 326L436 0H308L373 292Q375 300 376 308T378 327Q377 350 359 366T307 382Q278 382 252 364T208 326L136 0H9L116 483H243L229 420Q239 431 253 444T286 468T326 487T376 495Q412 495 437 484T478 459T501 430T509 408V406Q538 441 579 468T676 495Q703 495 728 487T772 463T802 425T814 372Q814 362 813 350T809 332L736 0H608Z"  />
<glyph unicode="n" horiz-adv-x="579" d="M335 0L399 288Q401 295 402 303T404 320Q404 354 382 368T330 382Q291 382 260 364T208 326L136 0H9L116 483H243L229 420Q258 448 297 471T390 495Q460 495 500 462T541 372Q541 365 540 353T536 332L462 0H335Z"  />
<glyph unicode="o" horiz-adv-x="574" d="M266 -12Q208 -12 164 4T89 50T43 119T27 207Q27 264 47 316T105 407T193 471T306 495Q364 495 408 479T483 433T530 363T546 275Q546 219 526 167T468 75T379 12T266 -12ZM271 101Q303 101 329 115T374 152T403 206T414 269Q414 322 385 352T302 382Q270 382 244 368T198 331T169 277T158 214Q158 161 187 131T271 101Z"  />
<glyph unicode="p" horiz-adv-x="583" d="M304 -12Q254 -12 214 8T150 64L95 -184H-32L116 483H243L229 423Q290 495 375 495Q456 495 507 443T558 295Q558 241 542 186T493 87T413 16T304 -12ZM283 101Q314 101 340 114T385 151T414 205T425 269Q425 321 395 351T318 382Q284 382 256 366T207 324L170 156Q186 132 215 117T283 101Z"  />
<glyph unicode="q" horiz-adv-x="583" d="M281 495Q329 495 370 475T435 419L448 483H576L428 -184H300L355 60Q324 24 289 6T210 -12Q127 -12 77 39T26 188Q26 243 42 297T91 396T171 467T281 495ZM301 382Q270 382 244 369T199 332T170 278T159 214Q159 162 189 132T266 101Q300 101 328 117T377 158L414 326Q398 350 369 366T301 382Z"  />
<glyph unicode="r" horiz-adv-x="360" d="M9 0L116 483H243L228 420Q260 455 301 475T400 495L372 369Q366 371 354 373T326 375Q291 375 259 358T206 317L136 0H9Z"  />
<glyph unicode="s" horiz-adv-x="477" d="M219 -12Q153 -12 93 10T-9 75L62 160Q72 147 90 134T130 109T179 91T231 84Q263 84 282 99T301 135Q301 153 283 164T238 185T179 205T120 232T74 272T56 332Q56 363 69 392T107 445T169 481T255 495Q317 495 371 474T460 416L395 335Q386 346 371 357T338 378T297 392T253 398Q219 398 201 384T183 351Q183 336 201 326T246 307T305 287T364 260T410 219T428 157Q428 122 414 92T373 38T307 2T219 -12Z"  />
<glyph unicode="t" horiz-adv-x="338" d="M203 -12Q138 -12 99 13T59 93Q59 98 60 107T63 126L117 373H37L62 483H142L171 615H299L270 483H368L342 373H244L198 163Q197 158 197 153T196 143Q196 123 207 112T243 101Q253 101 263 104T278 111L283 9Q269 -1 248 -6T203 -12Z"  />
<glyph unicode="u" horiz-adv-x="579" d="M243 483L178 192Q176 185 175 178T174 163Q174 130 197 116T255 101Q289 101 319 119T370 158L442 483H569L462 0H335L349 63Q335 49 318 36T281 12T238 -5T188 -12Q118 -12 78 21T37 112Q37 118 38 131T42 151L115 483H243Z"  />
<glyph unicode="v" horiz-adv-x="513" d="M134 0L47 483H179L230 147L432 483H572L271 0H134Z"  />
<glyph unicode="w" horiz-adv-x="769" d="M433 0L403 329L229 0H93L53 483H180L199 158L377 483H490L523 158L686 483H822L568 0H433Z"  />
<glyph unicode="x" horiz-adv-x="504" d="M312 0L238 163L91 0H-54L171 248L63 483H200L267 334L400 483H546L331 248L450 0H312Z"  />
<glyph unicode="y" horiz-adv-x="513" d="M-6 -74Q2 -78 15 -80T43 -82Q63 -82 76 -75T103 -48L133 -3L47 483H179L230 147L432 483H572L220 -79Q200 -111 180 -133T137 -170T89 -190T33 -196Q12 -196 -9 -193T-48 -184L-6 -74Z"  />
<glyph unicode="z" horiz-adv-x="479" d="M-12 0L9 95L284 372H71L95 483H485L465 391L186 111H406L382 0H-12Z"  />
<glyph unicode="{" horiz-adv-x="288" d="M129 -190Q101 -190 76 -181T32 -155T2 -115T-10 -62Q-10 -54 -9 -47T-6 -31L33 141Q34 146 34 150T35 159Q35 180 25 194T-5 208L11 280Q40 280 56 299T78 347L116 518Q135 601 184 639T306 678H367L348 593H288Q225 593 208 519L165 324Q157 292 142 268T99 235Q115 226 121 212T128 179Q128 171 127 163T124 145L86 -30Q85 -35 85 -39T84 -49Q84 -75 100 -90T139 -105H194L174 -190H129Z"  />
<glyph unicode="|" horiz-adv-x="216" d="M86 -20V687H171V-20H86Z"  />
<glyph unicode="}" horiz-adv-x="288" d="M158 678Q186 678 211 669T255 643T285 602T297 550Q297 531 293 519L255 347Q254 342 254 338T253 329Q253 307 263 294T292 280L276 208Q247 208 231 189T209 141L171 -30Q152 -113 103 -151T-19 -190H-80L-61 -105H-1Q62 -105 79 -31L123 164Q130 196 145 220T188 254Q172 262 166 276T159 309Q159 317 160 325T163 343L201 518Q202 523 202 527T203 537Q203 562 187 577T148 593H93L113 678H158Z"  />
<glyph unicode="~" horiz-adv-x="510" d="M575 657Q565 612 551 568T514 490T460 434T386 412Q350 412 330 425T301 457T288 500T281 542T271 575T249 588Q234 588 219 573T191 534T168 478T150 412L65 422Q74 468 89 511T127 589T181 645T254 666Q290 666 310 653T340 620T353 578T360 535T369 502T392 489Q407 489 422 504T450 545T473 602T491 667L575 657Z"  />
<glyph unicode="&#xA0;" horiz-adv-x="256" />
<glyph unicode="&#xA1;" horiz-adv-x="256" d="M188 265L110 -184H-44L76 265H188ZM171 495Q203 495 224 473T245 419Q245 401 238 386T219 358T190 339T156 332Q125 332 104 354T83 407Q83 425 90 441T109 469T137 488T171 495Z"  />
<glyph unicode="&#xA2;" horiz-adv-x="499" d="M185 -2Q111 18 70 73T28 208Q28 266 48 317T104 406T189 468T295 495L311 565H404L386 485Q428 474 457 452T505 400L410 327Q401 341 389 352T360 371L300 103Q324 107 344 119T379 149L448 64Q422 36 379 13T276 -12L256 -100H163L185 -2ZM157 214Q157 179 171 155T211 117L269 377Q243 370 223 355T188 318T165 270T157 214Z"  />
<glyph unicode="&#xA3;" horiz-adv-x="550" d="M46 350H124Q112 375 102 401T91 460Q91 505 112 544T168 613T251 660T353 677Q395 677 433 668T503 642T556 600T589 543L460 490Q453 524 426 542T360 561Q336 561 315 553T279 529T255 492T246 445Q246 416 256 395T275 350H417L398 269H285Q281 247 272 227T249 190T221 160T192 139Q206 144 215 145T236 146Q258 146 275 141T309 130T343 118T380 113Q407 113 427 124T461 150L492 37Q472 16 442 2T369 -13Q336 -13 307 -6T250 9T198 24T149 31Q123 31 97 22T38 -7L11 90Q41 103 66 121T110 161T140 207T151 257Q151 265 150 269H28L46 350Z"  />
<glyph unicode="&#xA4;" horiz-adv-x="623" d="M278 90Q213 97 166 127L68 48L2 131L94 205Q77 239 73 278T78 360Q94 433 142 486L86 560L171 628L230 551Q263 567 302 573T384 575Q418 571 447 561T499 536L594 613L660 534L568 458Q604 390 585 305Q577 269 561 237T519 177L575 108L490 40L431 113Q398 98 360 92T278 90ZM302 202Q333 199 359 206T405 230T439 269T459 319Q464 345 461 369T445 413T412 446T360 462Q329 466 303 458T257 435T224 396T205 347Q199 320 202 296T217 252T250 219T302 202Z"  />
<glyph unicode="&#xA5;" horiz-adv-x="645" d="M199 0L224 115H-6L11 193H241L259 273H30L47 352H225L89 667H243L350 399L573 667H743L469 352H647L629 273H401L383 193H611L593 115H366L341 0H199Z"  />
<glyph unicode="&#xA6;" horiz-adv-x="216" d="M86 -20V296H171V-20H86ZM86 371V687H171V371H86Z"  />
<glyph unicode="&#xA7;" horiz-adv-x="484" d="M466 333Q466 283 435 243T351 185Q383 167 397 141T411 86Q411 51 397 21T355 -32T291 -68T207 -81Q132 -81 71 -60T-32 2L39 78Q67 46 112 27T206 7Q242 7 263 25T284 67Q284 87 266 100T222 123T164 144T106 171T61 212T43 273Q43 322 75 359T171 414Q137 429 118 456T98 520Q98 554 112 582T153 632T215 665T296 677Q371 677 423 657T509 604L443 534Q420 560 381 574T301 588Q263 588 243 572T223 534Q223 515 241 503T286 481T344 461T403 434T448 394T466 333ZM335 304Q335 332 314 347T266 372Q216 365 194 344T171 296Q171 269 195 253T258 225Q300 236 317 258T335 304Z"  />
<glyph unicode="&#xA8;" horiz-adv-x="295" d="M402 618Q402 603 396 590T379 566T355 549T326 543Q300 543 283 560T266 603Q266 618 272 631T289 655T313 672T342 678Q368 678 385 661T402 618ZM191 618Q191 603 185 590T168 566T144 549T115 543Q89 543 72 560T55 603Q55 618 61 631T78 655T102 672T131 678Q157 678 174 661T191 618Z"  />
<glyph unicode="&#xA9;" horiz-adv-x="778" d="M754 334Q754 263 727 200T653 90T543 16T408 -11Q337 -11 274 16T165 90T91 200T64 334Q64 406 91 468T164 578T274 652T408 679Q480 679 543 652T653 578T727 469T754 334ZM718 334Q718 398 694 454T627 552T529 618T408 643Q345 643 289 619T191 552T125 454T100 334Q100 271 124 215T191 116T289 50T408 25Q472 25 528 49T627 116T693 214T718 334ZM531 177Q504 154 468 139T392 123Q348 123 313 137T253 176T215 234T201 307Q201 358 220 402T272 477T347 527T434 545Q485 545 527 526T594 465L556 438Q538 471 506 488T432 505Q398 505 365 491T306 450T263 387T247 308Q247 279 257 253T286 207T332 175T393 163Q426 163 456 177T507 211L531 177Z"  />
<glyph unicode="&#xAA;" horiz-adv-x="414" d="M269 575Q248 575 231 566T201 541T181 505T173 462Q173 426 192 409T241 391Q261 391 279 401T311 425L338 547Q327 561 308 568T269 575ZM451 640L381 326H288L296 365Q275 340 253 329T202 318Q177 318 155 326T115 350T87 392T77 450Q77 492 90 528T126 590T180 632T246 648Q279 648 306 637T350 601L358 640H451Z"  />
<glyph unicode="&#xAB;" horiz-adv-x="527" d="M149 63L29 243L229 420H350L146 238L262 63H149ZM339 63L219 243L419 420H540L336 238L452 63H339Z"  />
<glyph unicode="&#xAC;" horiz-adv-x="515" d="M466 201H384L426 388H61L78 468H524L466 201Z"  />
<glyph unicode="&#xAD;" horiz-adv-x="300" d="M17 188L41 296H281L257 188H17Z"  />
<glyph unicode="&#xAE;" horiz-adv-x="494" d="M508 465Q508 421 492 383T446 315T378 270T295 253Q251 253 213 269T146 315T101 382T84 465Q84 509 100 548T146 615T213 660T296 677Q340 677 379 661T446 616T491 548T508 465ZM476 465Q476 502 462 535T423 592T365 631T295 645Q257 645 225 631T168 593T130 535T116 465Q116 428 130 395T168 338T224 299T295 285Q332 285 365 299T422 337T461 395T476 465ZM329 343L287 439H243L222 343H188L241 586H333Q365 586 385 568T405 522Q405 504 398 489T380 463T354 446T325 440L369 343H329ZM369 519Q369 536 358 546T326 556H269L249 470H314Q339 470 354 484T369 519Z"  />
<glyph unicode="&#xAF;" horiz-adv-x="363" d="M70 562L86 634H448L432 562H70Z"  />
<glyph unicode="&#xB0;" horiz-adv-x="311" d="M356 541Q356 513 346 489T317 446T273 418T220 407Q192 407 168 417T125 446T97 488T86 541Q86 569 96 594T125 637T167 666T220 677Q248 677 273 667T316 638T345 594T356 541ZM287 541Q287 569 268 588T220 608Q193 608 175 589T156 541Q156 514 174 495T219 476Q247 476 267 495T287 541Z"  />
<glyph unicode="&#xB1;" horiz-adv-x="504" d="M313 326L268 122H181L226 326H46L64 404H244L288 601H374L330 404H510L493 326H313ZM-25 0L-8 78H438L421 0H-25Z"  />
<glyph unicode="&#xB2;" horiz-adv-x="397" d="M85 421L102 495Q177 538 226 569T306 623T348 664T361 702Q361 726 342 738T294 750Q260 750 230 738T182 707L142 771Q172 798 214 812T297 827Q331 827 361 820T413 797T447 761T460 711Q460 655 403 605T243 498H416L399 421H85Z"  />
<glyph unicode="&#xB3;" horiz-adv-x="397" d="M428 533Q428 511 418 490T387 452T338 425T270 414Q209 414 162 433T91 487L151 546Q171 517 202 504T265 491Q300 491 316 506T332 544Q332 564 309 575T243 587Q235 587 225 587T210 586L226 662Q230 662 238 662T256 661T275 660T291 660Q326 660 344 672T363 707Q363 729 339 739T283 750Q255 750 229 742T180 714L147 774Q175 797 213 812T292 827Q367 827 413 799T460 720Q460 682 432 653T350 619Q382 612 405 590T428 533Z"  />
<glyph unicode="&#xB4;" horiz-adv-x="251" d="M158 556H67L233 700H352L158 556Z"  />
<glyph unicode="&#xB5;" horiz-adv-x="591" d="M93 -184H-35L117 483H244L178 191Q167 144 188 122T247 100Q283 100 315 117T368 156L440 483H568L493 145Q484 101 524 101Q529 101 534 101T544 103L528 -5Q515 -8 498 -10T467 -12Q413 -12 386 10T357 74Q327 37 287 13T202 -12Q179 -12 162 -5T138 15L93 -184Z"  />
<glyph unicode="&#xB6;" horiz-adv-x="449" d="M263 -100L420 605H341L185 -100H122L216 323Q188 323 163 334T120 367T90 416T79 479Q79 514 93 548T134 608T195 651T273 667H496L326 -100H263Z"  />
<glyph unicode="&#xB7;" horiz-adv-x="256" d="M121 164Q89 164 68 186T47 238Q47 275 73 300T136 326Q166 326 187 305T209 251Q209 233 202 218T183 190T155 171T121 164Z"  />
<glyph unicode="&#xB8;" horiz-adv-x="221" d="M30 -196Q-10 -196 -41 -184T-89 -155L-54 -107Q-37 -124 -15 -133T30 -142Q53 -142 66 -133T80 -107Q80 -96 73 -90T50 -83Q33 -83 21 -97L-19 -71L29 11H92L53 -51Q67 -41 84 -41Q109 -41 126 -57T143 -103Q143 -146 111 -171T30 -196Z"  />
<glyph unicode="&#xB9;" horiz-adv-x="286" d="M168 421L228 694L147 628L104 687L270 821H353L265 421H168Z"  />
<glyph unicode="&#xBA;" horiz-adv-x="405" d="M238 318Q201 318 171 329T120 359T88 405T76 464Q76 503 91 537T133 595T194 634T266 648Q303 648 333 637T384 607T416 561T428 502Q428 463 413 429T371 371T311 332T238 318ZM241 392Q264 392 281 402T309 427T327 463T333 503Q333 535 315 553T264 572Q241 572 224 562T195 537T177 501T171 461Q171 429 190 411T241 392Z"  />
<glyph unicode="&#xBB;" horiz-adv-x="527" d="M190 420L310 240L110 63H-11L193 245L77 420H190ZM380 420L500 240L300 63H179L383 245L267 420H380Z"  />
<glyph unicode="&#xBC;" horiz-adv-x="833" d="M134 267L194 540L113 474L70 533L236 667H319L231 267H134ZM720 86L701 0H606L625 86H428L443 151L656 400H789L737 161H789L773 86H720ZM675 315L541 161H641L675 315ZM160 0H84L657 667H734L160 0Z"  />
<glyph unicode="&#xBD;" horiz-adv-x="867" d="M134 267L194 540L113 474L70 533L236 667H319L231 267H134ZM461 0L478 74Q553 117 602 148T682 202T724 243T737 281Q737 305 718 317T670 329Q636 329 606 317T558 286L518 350Q548 377 590 391T673 406Q707 406 737 399T789 376T823 340T836 290Q836 234 779 184T619 77H792L775 0H461ZM160 0H84L657 667H734L160 0Z"  />
<glyph unicode="&#xBE;" horiz-adv-x="921" d="M808 86L789 0H694L713 86H516L531 151L744 400H877L825 161H877L861 86H808ZM763 315L629 161H729L763 315ZM247 0H171L744 667H821L247 0ZM394 379Q394 357 384 336T353 298T304 271T236 260Q175 260 128 279T57 333L117 392Q137 363 168 350T231 337Q266 337 282 352T298 390Q298 410 275 421T209 433Q201 433 191 433T176 432L192 508Q196 508 204 508T222 507T241 506T257 506Q292 506 310 518T329 553Q329 575 305 585T249 596Q221 596 195 588T146 560L113 620Q141 643 179 658T258 673Q333 673 379 645T426 566Q426 528 398 499T316 465Q348 458 371 436T394 379Z"  />
<glyph unicode="&#xBF;" horiz-adv-x="398" d="M286 278Q302 249 302 208Q302 171 288 146T252 103T205 71T159 45T123 18T108 -17Q108 -41 128 -55T190 -70Q222 -70 253 -58T311 -22L371 -120Q323 -160 273 -177T168 -195Q125 -195 87 -185T20 -156T-26 -110T-43 -47Q-43 -3 -27 27T15 78T68 114T122 143T163 175T180 218Q180 223 178 231T169 247L286 278ZM275 494Q306 494 327 472T348 419Q348 401 341 385T322 357T294 338T259 331Q229 331 208 353T186 406Q186 424 193 440T212 468T241 487T275 494Z"  />
<glyph unicode="&#xC0;" horiz-adv-x="684" d="M480 0L463 113H177L110 0H-59L346 667H524L634 0H480ZM411 525L244 238H451L411 525ZM422 723L292 867H409L511 723H422Z"  />
<glyph unicode="&#xC1;" horiz-adv-x="684" d="M480 0L463 113H177L110 0H-59L346 667H524L634 0H480ZM411 525L244 238H451L411 525ZM473 723H382L548 867H667L473 723Z"  />
<glyph unicode="&#xC2;" horiz-adv-x="684" d="M521 723L467 812L377 723H297L421 867H535L597 723H521ZM480 0L463 113H177L110 0H-59L346 667H524L634 0H480ZM411 525L244 238H451L411 525Z"  />
<glyph unicode="&#xC3;" horiz-adv-x="684" d="M480 0L463 113H177L110 0H-59L346 667H524L634 0H480ZM411 525L244 238H451L411 525ZM517 721Q491 721 476 731T448 755T425 778T396 789Q365 789 352 727H284Q297 791 324 826T405 861Q431 861 447 851T474 828T497 805T526 794Q556 794 571 855H639Q625 791 598 756T517 721Z"  />
<glyph unicode="&#xC4;" horiz-adv-x="684" d="M633 785Q633 770 627 757T610 733T586 716T557 710Q531 710 514 727T497 770Q497 785 503 798T520 822T544 839T573 845Q599 845 616 828T633 785ZM422 785Q422 770 416 757T399 733T375 716T346 710Q320 710 303 727T286 770Q286 785 292 798T309 822T333 839T362 845Q388 845 405 828T422 785ZM480 0L463 113H177L110 0H-59L346 667H524L634 0H480ZM411 525L244 238H451L411 525Z"  />
<glyph unicode="&#xC5;" horiz-adv-x="684" d="M480 0L463 113H177L110 0H-59L346 667H524L634 0H480ZM411 525L244 238H451L411 525ZM452 688Q410 688 384 714T357 784Q357 807 366 828T391 864T428 889T472 899Q515 899 541 873T567 803Q567 779 558 759T533 722T497 697T452 688ZM458 747Q478 747 493 762T508 797Q508 816 497 828T467 840Q447 840 432 825T416 790Q416 770 427 759T458 747Z"  />
<glyph unicode="&#xC6;" horiz-adv-x="968" d="M400 0L425 113H194L103 0H-63L490 667H1019L991 542H662L631 401H954L926 276H604L570 125H899L872 0H400ZM514 518L290 238H453L514 518Z"  />
<glyph unicode="&#xC7;" horiz-adv-x="687" d="M303 -196Q263 -196 232 -184T184 -155L219 -107Q236 -124 258 -133T303 -142Q326 -142 339 -133T353 -107Q353 -96 346 -90T323 -83Q306 -83 294 -97L254 -71L293 -4Q239 6 193 31T114 93T63 180T44 287Q44 375 75 447T160 571T284 650T432 678Q493 678 541 663T626 621T688 561T728 489L591 443Q571 496 527 524T425 552Q378 552 336 533T261 479T211 398T192 296Q192 257 205 224T242 166T302 128T380 114Q423 114 465 135T537 191L646 117Q617 80 583 56T513 16T441 -5T372 -12Q367 -12 362 -12T351 -11L326 -51Q340 -41 357 -41Q382 -41 399 -57T416 -103Q416 -146 384 -171T303 -196Z"  />
<glyph unicode="&#xC8;" horiz-adv-x="583" d="M12 0L159 667H631L603 542H274L243 401H565L537 276H215L182 125H511L484 0H12ZM383 723L253 867H370L472 723H383Z"  />
<glyph unicode="&#xC9;" horiz-adv-x="583" d="M433 723H342L508 867H627L433 723ZM12 0L159 667H631L603 542H274L243 401H565L537 276H215L182 125H511L484 0H12Z"  />
<glyph unicode="&#xCA;" horiz-adv-x="583" d="M481 723L427 812L337 723H257L381 867H495L557 723H481ZM12 0L159 667H631L603 542H274L243 401H565L537 276H215L182 125H511L484 0H12Z"  />
<glyph unicode="&#xCB;" horiz-adv-x="583" d="M593 785Q593 770 587 757T570 733T546 716T517 710Q491 710 474 727T457 770Q457 785 463 798T480 822T504 839T533 845Q559 845 576 828T593 785ZM382 785Q382 770 376 757T359 733T335 716T306 710Q280 710 263 727T246 770Q246 785 252 798T269 822T293 839T322 845Q348 845 365 828T382 785ZM12 0L159 667H631L603 542H274L243 401H565L537 276H215L182 125H511L484 0H12Z"  />
<glyph unicode="&#xCC;" horiz-adv-x="274" d="M12 0L159 667H301L154 0H12ZM220 723L90 867H207L309 723H220Z"  />
<glyph unicode="&#xCD;" horiz-adv-x="274" d="M12 0L159 667H301L154 0H12ZM268 723H177L343 867H462L268 723Z"  />
<glyph unicode="&#xCE;" horiz-adv-x="274" d="M316 723L262 812L172 723H92L216 867H330L392 723H316ZM12 0L159 667H301L154 0H12Z"  />
<glyph unicode="&#xCF;" horiz-adv-x="274" d="M428 785Q428 770 422 757T405 733T381 716T352 710Q326 710 309 727T292 770Q292 785 298 798T315 822T339 839T368 845Q394 845 411 828T428 785ZM217 785Q217 770 211 757T194 733T170 716T141 710Q115 710 98 727T81 770Q81 785 87 798T104 822T128 839T157 845Q183 845 200 828T217 785ZM12 0L159 667H301L154 0H12Z"  />
<glyph unicode="&#xD0;" horiz-adv-x="742" d="M37 0L98 276H15L41 391H123L184 667H442Q497 667 549 647T642 589T706 498T731 380Q731 314 708 247T633 125T499 35T299 0H37ZM327 125Q387 125 434 145T515 198T565 276T583 371Q583 407 571 438T536 493T483 529T415 542H299L266 391H413L388 276H240L207 125H327Z"  />
<glyph unicode="&#xD1;" horiz-adv-x="729" d="M540 721Q514 721 499 731T471 755T448 778T419 789Q388 789 375 727H307Q320 791 347 826T428 861Q454 861 470 851T497 828T520 805T549 794Q579 794 594 855H662Q648 791 621 756T540 721ZM472 0L254 450L154 0H12L159 667H305L517 233L614 667H756L609 0H472Z"  />
<glyph unicode="&#xD2;" horiz-adv-x="765" d="M465 723L335 867H452L554 723H465ZM372 -12Q303 -12 243 9T139 69T69 163T44 287Q44 369 73 440T155 564T278 647T432 678Q501 678 560 657T664 597T734 503T759 380Q759 298 730 227T648 102T525 19T372 -12ZM380 114Q428 114 470 134T543 188T593 269T611 370Q611 412 597 445T557 503T498 539T423 552Q375 552 333 532T259 478T210 397T192 296Q192 254 206 220T246 163T305 127T380 114Z"  />
<glyph unicode="&#xD3;" horiz-adv-x="765" d="M514 723H423L589 867H708L514 723ZM372 -12Q303 -12 243 9T139 69T69 163T44 287Q44 369 73 440T155 564T278 647T432 678Q501 678 560 657T664 597T734 503T759 380Q759 298 730 227T648 102T525 19T372 -12ZM380 114Q428 114 470 134T543 188T593 269T611 370Q611 412 597 445T557 503T498 539T423 552Q375 552 333 532T259 478T210 397T192 296Q192 254 206 220T246 163T305 127T380 114Z"  />
<glyph unicode="&#xD4;" horiz-adv-x="765" d="M563 723L509 812L419 723H339L463 867H577L639 723H563ZM372 -12Q303 -12 243 9T139 69T69 163T44 287Q44 369 73 440T155 564T278 647T432 678Q501 678 560 657T664 597T734 503T759 380Q759 298 730 227T648 102T525 19T372 -12ZM380 114Q428 114 470 134T543 188T593 269T611 370Q611 412 597 445T557 503T498 539T423 552Q375 552 333 532T259 478T210 397T192 296Q192 254 206 220T246 163T305 127T380 114Z"  />
<glyph unicode="&#xD5;" horiz-adv-x="765" d="M372 -12Q303 -12 243 9T139 69T69 163T44 287Q44 369 73 440T155 564T278 647T432 678Q501 678 560 657T664 597T734 503T759 380Q759 298 730 227T648 102T525 19T372 -12ZM380 114Q428 114 470 134T543 188T593 269T611 370Q611 412 597 445T557 503T498 539T423 552Q375 552 333 532T259 478T210 397T192 296Q192 254 206 220T246 163T305 127T380 114ZM559 721Q533 721 518 731T490 755T467 778T438 789Q407 789 394 727H326Q339 791 366 826T447 861Q473 861 489 851T516 828T539 805T568 794Q598 794 613 855H681Q667 791 640 756T559 721Z"  />
<glyph unicode="&#xD6;" horiz-adv-x="765" d="M674 785Q674 770 668 757T651 733T627 716T598 710Q572 710 555 727T538 770Q538 785 544 798T561 822T585 839T614 845Q640 845 657 828T674 785ZM463 785Q463 770 457 757T440 733T416 716T387 710Q361 710 344 727T327 770Q327 785 333 798T350 822T374 839T403 845Q429 845 446 828T463 785ZM372 -12Q303 -12 243 9T139 69T69 163T44 287Q44 369 73 440T155 564T278 647T432 678Q501 678 560 657T664 597T734 503T759 380Q759 298 730 227T648 102T525 19T372 -12ZM380 114Q428 114 470 134T543 188T593 269T611 370Q611 412 597 445T557 503T498 539T423 552Q375 552 333 532T259 478T210 397T192 296Q192 254 206 220T246 163T305 127T380 114Z"  />
<glyph unicode="&#xD7;" horiz-adv-x="504" d="M264 278L90 135L41 195L217 339L109 477L172 529L278 390L454 533L503 473L327 328L434 190L372 140L264 278Z"  />
<glyph unicode="&#xD8;" horiz-adv-x="765" d="M372 -12Q250 -12 164 48L117 0H15L110 97Q78 134 61 182T44 287Q44 369 73 440T155 564T278 647T432 678Q488 678 537 664T629 624L671 667H773L685 577Q720 539 739 490T759 380Q759 298 730 227T648 102T525 19T372 -12ZM380 114Q428 114 470 134T543 188T593 269T611 370Q611 400 604 426T582 473L263 148Q311 114 380 114ZM192 296Q192 244 214 203L530 523Q484 552 423 552Q375 552 333 532T259 478T210 397T192 296Z"  />
<glyph unicode="&#xD9;" horiz-adv-x="733" d="M356 -12Q284 -12 230 5T139 52T85 126T66 221Q66 231 67 244T71 266L159 667H303L216 270Q214 265 213 257T212 237Q212 212 221 190T249 150T294 123T356 113Q432 113 472 156T528 270L616 667H761L672 267Q658 206 635 155T575 67T484 9T356 -12ZM447 723L317 867H434L536 723H447Z"  />
<glyph unicode="&#xDA;" horiz-adv-x="733" d="M497 723H406L572 867H691L497 723ZM356 -12Q284 -12 230 5T139 52T85 126T66 221Q66 231 67 244T71 266L159 667H303L216 270Q214 265 213 257T212 237Q212 212 221 190T249 150T294 123T356 113Q432 113 472 156T528 270L616 667H761L672 267Q658 206 635 155T575 67T484 9T356 -12Z"  />
<glyph unicode="&#xDB;" horiz-adv-x="733" d="M545 723L491 812L401 723H321L445 867H559L621 723H545ZM356 -12Q284 -12 230 5T139 52T85 126T66 221Q66 231 67 244T71 266L159 667H303L216 270Q214 265 213 257T212 237Q212 212 221 190T249 150T294 123T356 113Q432 113 472 156T528 270L616 667H761L672 267Q658 206 635 155T575 67T484 9T356 -12Z"  />
<glyph unicode="&#xDC;" horiz-adv-x="733" d="M657 785Q657 770 651 757T634 733T610 716T581 710Q555 710 538 727T521 770Q521 785 527 798T544 822T568 839T597 845Q623 845 640 828T657 785ZM446 785Q446 770 440 757T423 733T399 716T370 710Q344 710 327 727T310 770Q310 785 316 798T333 822T357 839T386 845Q412 845 429 828T446 785ZM356 -12Q284 -12 230 5T139 52T85 126T66 221Q66 231 67 244T71 266L159 667H303L216 270Q214 265 213 257T212 237Q212 212 221 190T249 150T294 123T356 113Q432 113 472 156T528 270L616 667H761L672 267Q658 206 635 155T575 67T484 9T356 -12Z"  />
<glyph unicode="&#xDD;" horiz-adv-x="645" d="M198 0L258 273L88 667H242L349 399L572 667H742L400 273L340 0H198ZM454 723H363L529 867H648L454 723Z"  />
<glyph unicode="&#xDE;" horiz-adv-x="624" d="M12 0L159 667H301L278 559H440Q480 559 514 544T573 504T612 446T626 375Q626 334 611 291T564 212T479 153T351 130H183L154 0H12ZM359 255Q387 255 409 263T447 286T470 319T478 359Q478 393 454 413T395 434H250L211 255H359Z"  />
<glyph unicode="&#xDF;" horiz-adv-x="643" d="M610 156Q610 123 596 93T554 39T490 2T406 -12Q337 -12 286 8T192 76L262 156Q288 125 324 106T409 87Q444 87 463 103T482 140Q482 156 466 166T426 185T373 203T321 226T280 262T264 318Q264 352 276 376T306 418T346 447T386 469T417 491T429 517Q429 540 406 554T349 569Q305 569 278 543T241 475L136 0H9L114 475Q123 516 142 553T191 617T262 661T358 677Q397 677 434 667T500 639T547 595T565 537Q565 504 552 481T520 441T478 412T436 389T404 366T391 338Q391 324 407 315T447 297T500 279T553 254T594 215T610 156Z"  />
<glyph unicode="&#xE0;" horiz-adv-x="586" d="M281 495Q329 495 370 475T435 419L448 483H576L469 0H341L355 60Q324 24 289 6T210 -12Q127 -12 77 39T26 188Q26 243 42 297T91 396T171 467T281 495ZM301 382Q270 382 244 369T199 332T170 278T159 214Q159 162 189 132T266 101Q300 101 328 117T377 158L414 326Q398 350 369 366T301 382ZM332 556L202 700H319L421 556H332Z"  />
<glyph unicode="&#xE1;" horiz-adv-x="586" d="M281 495Q329 495 370 475T435 419L448 483H576L469 0H341L355 60Q324 24 289 6T210 -12Q127 -12 77 39T26 188Q26 243 42 297T91 396T171 467T281 495ZM301 382Q270 382 244 369T199 332T170 278T159 214Q159 162 189 132T266 101Q300 101 328 117T377 158L414 326Q398 350 369 366T301 382ZM382 556H291L457 700H576L382 556Z"  />
<glyph unicode="&#xE2;" horiz-adv-x="586" d="M281 495Q329 495 370 475T435 419L448 483H576L469 0H341L355 60Q324 24 289 6T210 -12Q127 -12 77 39T26 188Q26 243 42 297T91 396T171 467T281 495ZM301 382Q270 382 244 369T199 332T170 278T159 214Q159 162 189 132T266 101Q300 101 328 117T377 158L414 326Q398 350 369 366T301 382ZM431 556L377 645L287 556H207L331 700H445L507 556H431Z"  />
<glyph unicode="&#xE3;" horiz-adv-x="586" d="M281 495Q329 495 370 475T435 419L448 483H576L469 0H341L355 60Q324 24 289 6T210 -12Q127 -12 77 39T26 188Q26 243 42 297T91 396T171 467T281 495ZM301 382Q270 382 244 369T199 332T170 278T159 214Q159 162 189 132T266 101Q300 101 328 117T377 158L414 326Q398 350 369 366T301 382ZM428 554Q402 554 387 564T359 588T336 611T307 622Q276 622 263 560H195Q208 624 235 659T316 694Q342 694 358 684T385 661T408 638T437 627Q467 627 482 688H550Q536 624 509 589T428 554Z"  />
<glyph unicode="&#xE4;" horiz-adv-x="586" d="M281 495Q329 495 370 475T435 419L448 483H576L469 0H341L355 60Q324 24 289 6T210 -12Q127 -12 77 39T26 188Q26 243 42 297T91 396T171 467T281 495ZM301 382Q270 382 244 369T199 332T170 278T159 214Q159 162 189 132T266 101Q300 101 328 117T377 158L414 326Q398 350 369 366T301 382ZM542 618Q542 603 536 590T519 566T495 549T466 543Q440 543 423 560T406 603Q406 618 412 631T429 655T453 672T482 678Q508 678 525 661T542 618ZM331 618Q331 603 325 590T308 566T284 549T255 543Q229 543 212 560T195 603Q195 618 201 631T218 655T242 672T271 678Q297 678 314 661T331 618Z"  />
<glyph unicode="&#xE5;" horiz-adv-x="586" d="M281 495Q329 495 370 475T435 419L448 483H576L469 0H341L355 60Q324 24 289 6T210 -12Q127 -12 77 39T26 188Q26 243 42 297T91 396T171 467T281 495ZM301 382Q270 382 244 369T199 332T170 278T159 214Q159 162 189 132T266 101Q300 101 328 117T377 158L414 326Q398 350 369 366T301 382ZM365 531Q323 531 297 557T270 627Q270 650 279 671T304 707T341 732T385 742Q428 742 454 716T480 646Q480 622 471 602T446 565T410 540T365 531ZM371 590Q391 590 406 605T421 640Q421 659 410 671T380 683Q360 683 345 668T329 633Q329 613 340 602T371 590Z"  />
<glyph unicode="&#xE6;" horiz-adv-x="914" d="M301 382Q270 382 244 369T199 332T170 278T159 214Q159 162 189 132T266 101Q300 101 328 117T377 158L414 326Q398 350 369 366T301 382ZM469 0H341L355 60Q324 24 289 6T210 -12Q127 -12 77 39T26 188Q26 243 42 297T91 396T171 467T281 495Q329 495 370 475T435 419L448 483H576L563 424Q589 453 626 474T710 495Q795 495 841 443T887 288Q887 265 884 239T876 201H519Q518 199 518 195T518 189Q518 174 526 157T551 125T593 102T654 92Q686 92 717 101T770 128L810 38Q775 15 734 2T657 -12Q587 -12 546 15T487 82L469 0ZM771 287Q772 289 772 292T772 297Q772 315 766 332T746 363T712 385T663 394Q637 394 615 385T576 360T548 326T532 287H771Z"  />
<glyph unicode="&#xE7;" horiz-adv-x="499" d="M211 -196Q171 -196 140 -184T92 -155L127 -107Q144 -124 166 -133T211 -142Q234 -142 247 -133T261 -107Q261 -96 254 -90T231 -83Q214 -83 202 -97L162 -71L200 -5Q120 12 74 68T28 208Q28 268 49 320T109 411T198 472T309 495Q384 495 432 469T505 400L410 327Q395 353 369 367T309 382Q275 382 247 369T199 332T168 279T157 214Q157 187 166 166T192 130T231 109T278 101Q309 101 335 114T379 149L448 64Q421 35 375 12T265 -12H258L234 -51Q248 -41 265 -41Q290 -41 307 -57T324 -103Q324 -146 292 -171T211 -196Z"  />
<glyph unicode="&#xE8;" horiz-adv-x="553" d="M278 -12Q221 -12 175 3T96 46T46 114T28 205Q28 264 49 316T107 409T195 472T307 495Q353 495 392 480T461 438T507 370T524 279Q524 258 521 236T514 201H155V189Q155 174 163 157T187 124T229 99T287 89Q319 89 352 98T409 125L449 38Q414 14 369 1T278 -12ZM410 287V297Q410 315 404 332T384 363T349 385T299 394Q273 394 251 385T212 360T184 326T168 287H410ZM330 556L200 700H317L419 556H330Z"  />
<glyph unicode="&#xE9;" horiz-adv-x="553" d="M381 556H290L456 700H575L381 556ZM278 -12Q221 -12 175 3T96 46T46 114T28 205Q28 264 49 316T107 409T195 472T307 495Q353 495 392 480T461 438T507 370T524 279Q524 258 521 236T514 201H155V189Q155 174 163 157T187 124T229 99T287 89Q319 89 352 98T409 125L449 38Q414 14 369 1T278 -12ZM410 287V297Q410 315 404 332T384 363T349 385T299 394Q273 394 251 385T212 360T184 326T168 287H410Z"  />
<glyph unicode="&#xEA;" horiz-adv-x="553" d="M428 556L374 645L284 556H204L328 700H442L504 556H428ZM278 -12Q221 -12 175 3T96 46T46 114T28 205Q28 264 49 316T107 409T195 472T307 495Q353 495 392 480T461 438T507 370T524 279Q524 258 521 236T514 201H155V189Q155 174 163 157T187 124T229 99T287 89Q319 89 352 98T409 125L449 38Q414 14 369 1T278 -12ZM410 287V297Q410 315 404 332T384 363T349 385T299 394Q273 394 251 385T212 360T184 326T168 287H410Z"  />
<glyph unicode="&#xEB;" horiz-adv-x="553" d="M541 618Q541 603 535 590T518 566T494 549T465 543Q439 543 422 560T405 603Q405 618 411 631T428 655T452 672T481 678Q507 678 524 661T541 618ZM330 618Q330 603 324 590T307 566T283 549T254 543Q228 543 211 560T194 603Q194 618 200 631T217 655T241 672T270 678Q296 678 313 661T330 618ZM278 -12Q221 -12 175 3T96 46T46 114T28 205Q28 264 49 316T107 409T195 472T307 495Q353 495 392 480T461 438T507 370T524 279Q524 258 521 236T514 201H155V189Q155 174 163 157T187 124T229 99T287 89Q319 89 352 98T409 125L449 38Q414 14 369 1T278 -12ZM410 287V297Q410 315 404 332T384 363T349 385T299 394Q273 394 251 385T212 360T184 326T168 287H410Z"  />
<glyph unicode="&#xEC;" horiz-adv-x="253" d="M9 0L116 483H243L136 0H9ZM173 556L43 700H160L262 556H173Z"  />
<glyph unicode="&#xED;" horiz-adv-x="253" d="M220 556H129L295 700H414L220 556ZM9 0L116 483H243L136 0H9Z"  />
<glyph unicode="&#xEE;" horiz-adv-x="253" d="M271 556L217 645L127 556H47L171 700H285L347 556H271ZM9 0L116 483H243L136 0H9Z"  />
<glyph unicode="&#xEF;" horiz-adv-x="253" d="M384 618Q384 603 378 590T361 566T337 549T308 543Q282 543 265 560T248 603Q248 618 254 631T271 655T295 672T324 678Q350 678 367 661T384 618ZM173 618Q173 603 167 590T150 566T126 549T97 543Q71 543 54 560T37 603Q37 618 43 631T60 655T84 672T113 678Q139 678 156 661T173 618ZM9 0L116 483H243L136 0H9Z"  />
<glyph unicode="&#xF0;" horiz-adv-x="574" d="M138 543L262 580Q248 591 235 601T208 623L298 716Q328 693 354 670T404 622L513 654L528 596L448 572Q551 445 551 306Q551 241 532 184T476 83T387 14T269 -12Q214 -12 169 3T92 45T43 112T25 198Q25 253 43 300T95 383T172 439T268 460Q325 460 367 433T432 351Q421 396 389 442T314 532L153 485L138 543ZM271 101Q301 101 326 112T369 142T397 188T408 246Q408 265 401 283T379 316T342 338T290 347Q261 347 237 336T194 306T166 261T156 205Q156 157 185 129T271 101Z"  />
<glyph unicode="&#xF1;" horiz-adv-x="579" d="M335 0L399 288Q401 295 402 303T404 320Q404 354 382 368T330 382Q291 382 260 364T208 326L136 0H9L116 483H243L229 420Q258 448 297 471T390 495Q460 495 500 462T541 372Q541 365 540 353T536 332L462 0H335ZM428 554Q402 554 387 564T359 588T336 611T307 622Q276 622 263 560H195Q208 624 235 659T316 694Q342 694 358 684T385 661T408 638T437 627Q467 627 482 688H550Q536 624 509 589T428 554Z"  />
<glyph unicode="&#xF2;" horiz-adv-x="574" d="M266 -12Q208 -12 164 4T89 50T43 119T27 207Q27 264 47 316T105 407T193 471T306 495Q364 495 408 479T483 433T530 363T546 275Q546 219 526 167T468 75T379 12T266 -12ZM271 101Q303 101 329 115T374 152T403 206T414 269Q414 322 385 352T302 382Q270 382 244 368T198 331T169 277T158 214Q158 161 187 131T271 101ZM332 556L202 700H319L421 556H332Z"  />
<glyph unicode="&#xF3;" horiz-adv-x="574" d="M380 556H289L455 700H574L380 556ZM266 -12Q208 -12 164 4T89 50T43 119T27 207Q27 264 47 316T105 407T193 471T306 495Q364 495 408 479T483 433T530 363T546 275Q546 219 526 167T468 75T379 12T266 -12ZM271 101Q303 101 329 115T374 152T403 206T414 269Q414 322 385 352T302 382Q270 382 244 368T198 331T169 277T158 214Q158 161 187 131T271 101Z"  />
<glyph unicode="&#xF4;" horiz-adv-x="574" d="M430 556L376 645L286 556H206L330 700H444L506 556H430ZM266 -12Q208 -12 164 4T89 50T43 119T27 207Q27 264 47 316T105 407T193 471T306 495Q364 495 408 479T483 433T530 363T546 275Q546 219 526 167T468 75T379 12T266 -12ZM271 101Q303 101 329 115T374 152T403 206T414 269Q414 322 385 352T302 382Q270 382 244 368T198 331T169 277T158 214Q158 161 187 131T271 101Z"  />
<glyph unicode="&#xF5;" horiz-adv-x="574" d="M266 -12Q208 -12 164 4T89 50T43 119T27 207Q27 264 47 316T105 407T193 471T306 495Q364 495 408 479T483 433T530 363T546 275Q546 219 526 167T468 75T379 12T266 -12ZM271 101Q303 101 329 115T374 152T403 206T414 269Q414 322 385 352T302 382Q270 382 244 368T198 331T169 277T158 214Q158 161 187 131T271 101ZM428 554Q402 554 387 564T359 588T336 611T307 622Q276 622 263 560H195Q208 624 235 659T316 694Q342 694 358 684T385 661T408 638T437 627Q467 627 482 688H550Q536 624 509 589T428 554Z"  />
<glyph unicode="&#xF6;" horiz-adv-x="574" d="M542 618Q542 603 536 590T519 566T495 549T466 543Q440 543 423 560T406 603Q406 618 412 631T429 655T453 672T482 678Q508 678 525 661T542 618ZM331 618Q331 603 325 590T308 566T284 549T255 543Q229 543 212 560T195 603Q195 618 201 631T218 655T242 672T271 678Q297 678 314 661T331 618ZM266 -12Q208 -12 164 4T89 50T43 119T27 207Q27 264 47 316T105 407T193 471T306 495Q364 495 408 479T483 433T530 363T546 275Q546 219 526 167T468 75T379 12T266 -12ZM271 101Q303 101 329 115T374 152T403 206T414 269Q414 322 385 352T302 382Q270 382 244 368T198 331T169 277T158 214Q158 161 187 131T271 101Z"  />
<glyph unicode="&#xF7;" horiz-adv-x="511" d="M41 298L58 377H511L494 298H41ZM230 96Q207 96 191 112T175 152Q175 179 194 198T241 218Q264 218 280 202T297 162Q297 134 277 115T230 96ZM309 454Q286 454 270 470T254 510Q254 537 273 556T320 576Q343 576 359 560T375 520Q375 492 356 473T309 454Z"  />
<glyph unicode="&#xF8;" horiz-adv-x="574" d="M-16 0L66 76Q27 130 27 207Q27 264 47 316T105 407T193 471T306 495Q356 495 395 483T464 448L501 483H585L505 408Q546 353 546 275Q546 219 526 167T468 75T379 12T266 -12Q167 -12 105 36L67 0H-16ZM271 101Q303 101 329 115T374 152T403 206T414 269Q414 294 406 316L198 122Q225 101 271 101ZM158 214Q158 187 165 169L372 362Q344 382 302 382Q270 382 244 368T198 331T169 277T158 214Z"  />
<glyph unicode="&#xF9;" horiz-adv-x="579" d="M243 483L178 192Q176 185 175 178T174 163Q174 130 197 116T255 101Q289 101 319 119T370 158L442 483H569L462 0H335L349 63Q335 49 318 36T281 12T238 -5T188 -12Q118 -12 78 21T37 112Q37 118 38 131T42 151L115 483H243ZM334 556L204 700H321L423 556H334Z"  />
<glyph unicode="&#xFA;" horiz-adv-x="579" d="M383 556H292L458 700H577L383 556ZM243 483L178 192Q176 185 175 178T174 163Q174 130 197 116T255 101Q289 101 319 119T370 158L442 483H569L462 0H335L349 63Q335 49 318 36T281 12T238 -5T188 -12Q118 -12 78 21T37 112Q37 118 38 131T42 151L115 483H243Z"  />
<glyph unicode="&#xFB;" horiz-adv-x="579" d="M432 556L378 645L288 556H208L332 700H446L508 556H432ZM243 483L178 192Q176 185 175 178T174 163Q174 130 197 116T255 101Q289 101 319 119T370 158L442 483H569L462 0H335L349 63Q335 49 318 36T281 12T238 -5T188 -12Q118 -12 78 21T37 112Q37 118 38 131T42 151L115 483H243Z"  />
<glyph unicode="&#xFC;" horiz-adv-x="579" d="M545 618Q545 603 539 590T522 566T498 549T469 543Q443 543 426 560T409 603Q409 618 415 631T432 655T456 672T485 678Q511 678 528 661T545 618ZM334 618Q334 603 328 590T311 566T287 549T258 543Q232 543 215 560T198 603Q198 618 204 631T221 655T245 672T274 678Q300 678 317 661T334 618ZM243 483L178 192Q176 185 175 178T174 163Q174 130 197 116T255 101Q289 101 319 119T370 158L442 483H569L462 0H335L349 63Q335 49 318 36T281 12T238 -5T188 -12Q118 -12 78 21T37 112Q37 118 38 131T42 151L115 483H243Z"  />
<glyph unicode="&#xFD;" horiz-adv-x="513" d="M-6 -74Q2 -78 15 -80T43 -82Q63 -82 76 -75T103 -48L133 -3L47 483H179L230 147L432 483H572L220 -79Q200 -111 180 -133T137 -170T89 -190T33 -196Q12 -196 -9 -193T-48 -184L-6 -74ZM347 556H256L422 700H541L347 556Z"  />
<glyph unicode="&#xFE;" horiz-adv-x="583" d="M304 -12Q254 -12 214 8T150 64L95 -184H-32L156 667H283L229 423Q290 495 375 495Q456 495 507 443T558 295Q558 241 542 186T493 87T413 16T304 -12ZM283 101Q314 101 340 114T385 151T414 205T425 269Q425 321 395 351T318 382Q284 382 256 366T207 324L170 156Q186 132 215 117T283 101Z"  />
<glyph unicode="&#xFF;" horiz-adv-x="513" d="M-6 -74Q2 -78 15 -80T43 -82Q63 -82 76 -75T103 -48L133 -3L47 483H179L230 147L432 483H572L220 -79Q200 -111 180 -133T137 -170T89 -190T33 -196Q12 -196 -9 -193T-48 -184L-6 -74ZM508 618Q508 603 502 590T485 566T461 549T432 543Q406 543 389 560T372 603Q372 618 378 631T395 655T419 672T448 678Q474 678 491 661T508 618ZM297 618Q297 603 291 590T274 566T250 549T221 543Q195 543 178 560T161 603Q161 618 167 631T184 655T208 672T237 678Q263 678 280 661T297 618Z"  />
<glyph unicode="&#x110;" horiz-adv-x="742" d="M37 0L98 276H15L41 391H123L184 667H442Q497 667 549 647T642 589T706 498T731 380Q731 314 708 247T633 125T499 35T299 0H37ZM327 125Q387 125 434 145T515 198T565 276T583 371Q583 407 571 438T536 493T483 529T415 542H299L266 391H413L388 276H240L207 125H327Z"  />
<glyph unicode="&#x131;" horiz-adv-x="253" d="M9 0L116 483H243L136 0H9Z"  />
<glyph unicode="&#x152;" horiz-adv-x="1084" d="M515 0L532 76Q496 35 445 12T324 -12Q265 -12 214 10T125 71T66 166T44 287Q44 374 74 446T157 569T277 649T422 677Q493 677 550 650T640 562L662 667H1134L1107 542H778L747 401H1069L1041 276H719L686 125H1015L987 0H515ZM608 420Q591 483 544 517T431 551Q379 551 335 531T260 476T210 395T192 296Q192 254 205 221T243 164T300 127T373 114Q431 114 481 142T564 219L608 420Z"  />
<glyph unicode="&#x153;" horiz-adv-x="931" d="M540 201Q540 199 540 196T539 189Q539 172 547 155T572 123T613 99T670 89Q702 89 735 98T790 125L829 38Q798 16 755 2T660 -12Q620 -12 588 -2T530 23T487 58T462 95Q446 78 428 59T385 24T332 -2T264 -12Q211 -12 168 3T93 46T45 114T27 207Q27 261 46 313T102 405T190 470T304 495Q342 495 373 485T427 458T467 423T491 387Q506 405 525 424T568 458T622 484T689 495Q732 495 771 481T840 440T886 373T904 279Q904 258 901 237T895 201H540ZM790 287Q791 290 791 297Q791 315 785 332T765 363T731 385T682 394Q655 394 633 384T593 358T566 324T552 287H790ZM410 269Q410 328 378 355T300 382Q270 382 245 369T200 334T169 280T158 214Q158 161 187 131T269 101Q300 101 325 114T370 151T399 204T410 269Z"  />
<glyph unicode="&#x160;" horiz-adv-x="600" d="M356 723L293 867H369L422 777L513 867H593L470 723H356ZM301 -12Q252 -12 207 -3T122 22T52 62T-1 112L87 216Q104 193 128 174T182 141T244 120T312 112Q339 112 358 119T389 137T406 161T412 188Q412 211 388 227T328 257T250 286T172 324T112 379T88 460Q88 501 105 540T156 609T238 658T349 677Q429 677 499 649T614 569L526 469Q507 491 483 507T433 533T380 549T327 554Q289 554 264 534T238 486Q238 464 262 450T322 421T401 392T479 353T540 297T564 216Q564 170 546 129T495 56T412 7T301 -12Z"  />
<glyph unicode="&#x161;" horiz-adv-x="477" d="M257 556L194 700H270L323 610L414 700H494L371 556H257ZM219 -12Q153 -12 93 10T-9 75L62 160Q72 147 90 134T130 109T179 91T231 84Q263 84 282 99T301 135Q301 153 283 164T238 185T179 205T120 232T74 272T56 332Q56 363 69 392T107 445T169 481T255 495Q317 495 371 474T460 416L395 335Q386 346 371 357T338 378T297 392T253 398Q219 398 201 384T183 351Q183 336 201 326T246 307T305 287T364 260T410 219T428 157Q428 122 414 92T373 38T307 2T219 -12Z"  />
<glyph unicode="&#x178;" horiz-adv-x="645" d="M615 785Q615 770 609 757T592 733T568 716T539 710Q513 710 496 727T479 770Q479 785 485 798T502 822T526 839T555 845Q581 845 598 828T615 785ZM404 785Q404 770 398 757T381 733T357 716T328 710Q302 710 285 727T268 770Q268 785 274 798T291 822T315 839T344 845Q370 845 387 828T404 785ZM198 0L258 273L88 667H242L349 399L572 667H742L400 273L340 0H198Z"  />
<glyph unicode="&#x17D;" horiz-adv-x="592" d="M344 723L281 867H357L410 777L501 867H581L458 723H344ZM-12 0L13 115L414 542H108L135 667H636L612 553L209 125H524L496 0H-12Z"  />
<glyph unicode="&#x17E;" horiz-adv-x="479" d="M250 556L187 700H263L316 610L407 700H487L364 556H250ZM-12 0L9 95L284 372H71L95 483H485L465 391L186 111H406L382 0H-12Z"  />
<glyph unicode="&#x192;" horiz-adv-x="454" d="M-47 -161L42 238H-12V350H66L103 516Q119 588 162 632T281 677Q318 677 353 667T418 629L365 529Q346 552 313 552Q258 552 242 485L212 350H325V238H187L99 -161H-47Z"  />
<glyph unicode="&#x2C6;" horiz-adv-x="300" d="M293 556L239 645L149 556H69L193 700H307L369 556H293Z"  />
<glyph unicode="&#x2C7;" horiz-adv-x="300" d="M164 556L101 700H177L230 610L321 700H401L278 556H164Z"  />
<glyph unicode="&#x2DA;" horiz-adv-x="209" d="M180 531Q138 531 112 557T85 627Q85 650 94 671T119 707T156 732T200 742Q243 742 269 716T295 646Q295 622 286 602T261 565T225 540T180 531ZM186 590Q206 590 221 605T236 640Q236 659 225 671T195 683Q175 683 160 668T144 633Q144 613 155 602T186 590Z"  />
<glyph unicode="&#x2DC;" horiz-adv-x="327" d="M303 554Q277 554 262 564T234 588T211 611T182 622Q151 622 138 560H70Q83 624 110 659T191 694Q217 694 233 684T260 661T283 638T312 627Q342 627 357 688H425Q411 624 384 589T303 554Z"  />
<glyph unicode="&#x2013;" horiz-adv-x="593" d="M17 188L41 296H574L550 188H17Z"  />
<glyph unicode="&#x2014;" horiz-adv-x="833" d="M17 188L41 296H814L790 188H17Z"  />
<glyph unicode="&#x2018;" horiz-adv-x="255" d="M91 477Q91 506 102 535T133 590T180 639T238 677L283 630Q256 618 227 595T185 546Q187 547 190 547T195 547Q220 547 238 531T257 482Q257 464 250 449T230 421T201 403T168 396Q138 396 115 416T91 477Z"  />
<glyph unicode="&#x2019;" horiz-adv-x="255" d="M291 595Q291 566 280 537T249 482T202 433T144 395L98 442Q125 454 154 477T196 526H186Q161 526 143 542T124 591Q124 609 131 624T151 651T180 670T213 677Q243 677 267 657T291 595Z"  />
<glyph unicode="&#x201A;" horiz-adv-x="256" d="M174 69Q174 40 163 11T132 -44T85 -93T27 -131L-18 -84Q9 -72 38 -49T80 0H69Q45 0 27 16T8 65Q8 83 15 98T35 125T63 144T96 151Q127 151 150 131T174 69Z"  />
<glyph unicode="&#x201C;" horiz-adv-x="459" d="M296 477Q296 506 307 535T337 590T384 639T442 677L488 630Q461 618 432 595T390 546Q392 547 395 547T400 547Q425 547 443 531T462 482Q462 464 455 449T435 421T406 403T373 396Q342 396 319 416T296 477ZM92 477Q92 506 103 535T134 590T181 639T239 677L285 630Q258 618 229 595T187 546Q189 547 192 547T197 547Q222 547 240 531T259 482Q259 464 252 449T232 421T203 403T170 396Q140 396 116 416T92 477Z"  />
<glyph unicode="&#x201D;" horiz-adv-x="459" d="M291 595Q291 566 280 537T249 482T202 433T144 395L98 442Q125 454 154 477T196 526H186Q161 526 143 542T124 591Q124 609 131 624T151 651T180 670T213 677Q243 677 267 657T291 595ZM494 595Q494 566 483 537T452 482T405 433T347 395L302 442Q329 454 358 477T400 526H389Q364 526 346 542T328 591Q328 609 335 624T355 651T383 670T416 677Q447 677 470 657T494 595Z"  />
<glyph unicode="&#x201E;" horiz-adv-x="459" d="M174 69Q174 40 163 11T132 -44T85 -93T27 -131L-18 -84Q9 -72 38 -49T80 0H69Q45 0 27 16T8 65Q8 83 15 98T35 125T63 144T96 151Q127 151 150 131T174 69ZM377 69Q377 40 366 11T335 -44T288 -93T230 -131L185 -84Q212 -72 241 -49T283 0H273Q248 0 230 16T211 65Q211 83 218 98T238 125T267 144T300 151Q330 151 353 131T377 69Z"  />
<glyph unicode="&#x2020;" horiz-adv-x="277" d="M230 526L190 327H122L171 526L81 522L95 584L183 581L200 677H268L242 581L332 584L318 522L230 526Z"  />
<glyph unicode="&#x2021;" horiz-adv-x="277" d="M318 522L230 526L187 332L277 336L263 274L175 277L157 180H89L115 277L26 274L40 336L127 332L170 526L81 522L95 584L183 581L200 677H268L242 581L332 584L318 522Z"  />
<glyph unicode="&#x2022;" horiz-adv-x="358" d="M299 254Q299 227 288 204T259 163T217 135T166 124Q120 124 90 154T59 231Q59 258 70 281T99 322T141 350T192 361Q238 361 268 331T299 254Z"  />
<glyph unicode="&#x2026;" horiz-adv-x="768" d="M82 -12Q51 -12 30 10T8 63Q8 81 15 97T34 125T63 144T97 151Q128 151 149 129T170 76Q170 58 163 42T144 14T116 -5T82 -12ZM338 -12Q307 -12 286 10T264 63Q264 81 271 97T290 125T319 144T353 151Q384 151 405 129T426 76Q426 58 419 42T400 14T372 -5T338 -12ZM594 -12Q563 -12 542 10T520 63Q520 81 527 97T546 125T575 144T609 151Q640 151 661 129T682 76Q682 58 675 42T656 14T628 -5T594 -12Z"  />
<glyph unicode="&#x2030;" horiz-adv-x="1122" d="M76 0L649 667H725L151 0H76ZM530 -12Q498 -12 469 -3T417 25T382 69T369 127Q369 170 384 206T424 267T483 307T554 321Q586 321 615 312T667 284T702 240T715 182Q715 138 700 103T660 42T601 2T530 -12ZM532 66Q570 66 597 95T624 174Q624 203 604 222T552 242Q514 242 488 213T461 135Q461 105 480 86T532 66ZM241 345Q209 345 180 354T130 382T95 425T82 483Q82 526 97 562T137 623T196 663T267 677Q299 677 328 668T378 640T413 597T426 539Q426 495 411 460T371 399T312 359T241 345ZM245 423Q282 423 309 452T336 530Q336 559 316 578T263 598Q226 598 199 569T172 491Q172 462 192 443T245 423ZM894 -12Q862 -12 833 -3T781 25T746 69T733 127Q733 170 748 206T788 267T847 307T918 321Q950 321 979 312T1031 284T1066 240T1079 182Q1079 138 1064 103T1024 42T965 2T894 -12ZM897 66Q934 66 961 95T988 174Q988 203 968 222T916 242Q878 242 852 213T825 135Q825 105 845 86T897 66Z"  />
<glyph unicode="&#x2039;" horiz-adv-x="337" d="M149 63L29 243L229 420H350L146 238L262 63H149Z"  />
<glyph unicode="&#x203A;" horiz-adv-x="337" d="M190 420L310 240L110 63H-11L193 245L77 420H190Z"  />
<glyph unicode="&#x2044;" horiz-adv-x="159" d="M-150 0H-226L347 667H424L-150 0Z"  />
<glyph unicode="&#x20AC;" horiz-adv-x="709" d="M400 -12Q339 -12 286 4T190 51T118 126T78 225H17L34 303H72Q73 319 74 334T79 365H48L65 443H101Q123 498 160 541T244 615T346 662T460 678Q521 678 569 663T654 621T716 561T756 489L619 443Q599 496 555 524T453 552Q394 552 344 523T261 443H517L499 365H228Q220 333 220 303H485L468 225H232Q252 174 297 144T408 114Q451 114 493 135T565 191L674 117Q645 80 611 56T541 16T469 -5T400 -12Z"  />
<glyph unicode="&#x2122;" horiz-adv-x="454" d="M436 447L476 629L361 447H353L318 629L278 447H250L298 667H341L370 507L469 667H512L464 447H436ZM195 641L152 447H124L167 641H105L110 667H262L257 641H195Z"  />
<glyph unicode="&#xF656;" horiz-adv-x="286" d="M75 0L135 273L54 207L11 266L177 400H260L172 0H75Z"  />
<glyph unicode="&#xF657;" horiz-adv-x="397" d="M-8 0L9 74Q84 117 133 148T213 202T255 243T268 281Q268 305 249 317T201 329Q167 329 137 317T89 286L49 350Q79 377 121 391T204 406Q238 406 268 399T320 376T354 340T367 290Q367 234 310 184T150 77H323L306 0H-8Z"  />
<glyph unicode="&#xF658;" horiz-adv-x="397" d="M335 112Q335 90 325 69T294 31T245 4T177 -7Q116 -7 69 12T-2 66L58 125Q78 96 109 83T172 70Q207 70 223 85T239 123Q239 143 216 154T150 166Q142 166 132 166T117 165L133 241Q137 241 145 241T163 240T182 239T198 239Q233 239 251 251T270 286Q270 308 246 318T190 329Q162 329 136 321T87 293L54 353Q82 376 120 391T199 406Q274 406 320 378T367 299Q367 261 339 232T257 198Q289 191 312 169T335 112Z"  />
<glyph unicode="&#xF659;" horiz-adv-x="397" d="M285 86L266 0H171L190 86H-7L8 151L221 400H354L302 161H354L338 86H285ZM240 315L106 161H206L240 315Z"  />


</font>
</defs>
</svg>
